# xmcd
#
# Track frame offsets: 
#        150
#        11578
#        18738
#        31030
#
# Disc length: 554 seconds
#
# Revision: 0
# Processed by: cddbd v1.5.2PL0 Copyright (c) Steve Scherf et al.
# Submitted via: ExactAudioCopyFreeDBPlugin 1.0
#
DISCID=23022804
DTITLE=Steveless - Bristol Uncovered Acoustic Session
DYEAR=2007
DGENRE=Alternative
TTITLE0=Waiting
TTITLE1=To Hell With Boring
TTITLE2=Robots In The Rain
TTITLE3=Didn't Like It
EXTD=
EXTT0=
EXTT1=
EXTT2=
EXTT3=
PLAYORDER=
